<svg width="1564" height="1759" xmlns="http://www.w3.org/2000/svg" xmlns:xlink="http://www.w3.org/1999/xlink" xml:space="preserve" overflow="hidden"><defs><clipPath id="clip0"><rect x="140" y="-95" width="1564" height="1759"/></clipPath></defs><g clip-path="url(#clip0)" transform="translate(-140 95)"><path d="M1684.11 1224C1696.37 1202.77 1704 1178.84 1704 1157.36L1704 411.634C1704 390.151 1696.39 366.233 1684.11 345L1177.51 390.604 829 784.498 1105.95 1179.14 1684.11 1224Z" fill="#00599C" fill-rule="evenodd"/><path d="M989.711 1647.89 1636.18 1275.03C1654.8 1264.29 1671.73 1245.74 1684 1224.5L922 785 420.516 802.706 160 1224.51C172.268 1245.74 189.201 1264.29 207.819 1275.03L854.285 1647.89C891.527 1669.37 952.473 1669.37 989.711 1647.89Z" fill="#004482" fill-rule="evenodd"/><path d="M1684 344.663C1671.72 323.416 1654.79 304.862 1636.17 294.116L989.661-78.8814C952.421-100.373 891.47-100.373 854.226-78.8814L207.716 294.12C170.468 315.604 140 368.354 140 411.329L140 1157.33C140 1178.83 147.621 1202.76 159.897 1224L921.949 784.334 1684 344.663Z" fill="#659AD2" fill-rule="evenodd"/><path d="M921.893 1306C634.672 1306 401 1072.06 401 784.5 401 496.944 634.672 263 921.893 263 1107.23 263 1280.08 362.852 1372.98 523.587L1147.55 654.188C1101.06 573.735 1014.58 523.752 921.897 523.752 778.284 523.752 661.448 640.72 661.448 784.5 661.448 928.276 778.281 1045.25 921.897 1045.25 1014.59 1045.25 1101.07 995.265 1147.57 914.798L1373 1045.39C1280.09 1206.14 1107.24 1306 921.893 1306Z" fill="#FFFFFF" fill-rule="evenodd"/></g></svg>